<?xml version="1.0" encoding="UTF-8"?>
<svg xmlns="http://www.w3.org/2000/svg" xmlns:xlink="http://www.w3.org/1999/xlink" viewBox="0 0 15 15" width="15px" height="15px">
<g id="surface11204834">
<path style=" stroke:none;fill-rule:nonzero;fill:rgb(100%,100%,100%);fill-opacity:1;" d="M 13.3125 1.796875 C 13.167969 1.800781 13.023438 1.84375 12.898438 1.894531 C 12.769531 1.945312 12.039062 2.257812 10.960938 2.71875 C 9.878906 3.179688 8.476562 3.78125 7.085938 4.375 C 4.304688 5.570312 1.570312 6.742188 1.570312 6.742188 L 1.589844 6.734375 C 1.589844 6.734375 1.425781 6.789062 1.257812 6.90625 C 1.175781 6.964844 1.085938 7.039062 1.011719 7.148438 C 0.9375 7.257812 0.882812 7.414062 0.90625 7.578125 C 0.976562 8.15625 1.574219 8.320312 1.574219 8.320312 L 1.578125 8.320312 L 4.246094 9.234375 C 4.316406 9.460938 5.058594 11.9375 5.222656 12.460938 C 5.3125 12.753906 5.394531 12.917969 5.484375 13.035156 C 5.527344 13.089844 5.574219 13.136719 5.625 13.167969 C 5.644531 13.179688 5.664062 13.191406 5.6875 13.199219 C 5.691406 13.199219 5.691406 13.199219 5.695312 13.199219 L 5.6875 13.199219 C 5.695312 13.199219 5.699219 13.203125 5.703125 13.207031 C 5.714844 13.210938 5.71875 13.210938 5.730469 13.210938 C 6.035156 13.320312 6.289062 13.121094 6.289062 13.121094 L 6.300781 13.113281 L 7.941406 11.589844 L 10.605469 13.667969 L 10.636719 13.683594 C 11.101562 13.886719 11.523438 13.773438 11.757812 13.582031 C 11.992188 13.394531 12.082031 13.148438 12.082031 13.148438 L 12.09375 13.121094 L 14.050781 2.925781 C 14.101562 2.699219 14.105469 2.5 14.058594 2.320312 C 14.011719 2.144531 13.898438 1.988281 13.753906 1.902344 C 13.609375 1.816406 13.460938 1.789062 13.3125 1.796875 Z M 13.328125 2.40625 C 13.386719 2.402344 13.433594 2.410156 13.445312 2.417969 C 13.460938 2.425781 13.464844 2.425781 13.480469 2.476562 C 13.492188 2.527344 13.5 2.632812 13.464844 2.796875 L 13.460938 2.800781 L 11.515625 12.9375 C 11.511719 12.949219 11.472656 13.042969 11.378906 13.117188 C 11.285156 13.195312 11.179688 13.253906 10.902344 13.136719 L 7.988281 10.867188 L 7.90625 10.804688 L 7.035156 10.152344 L 11.929688 4.394531 C 12.003906 4.304688 12.023438 4.175781 11.972656 4.070312 C 11.917969 3.964844 11.8125 3.898438 11.691406 3.898438 C 11.636719 3.902344 11.582031 3.917969 11.535156 3.949219 L 4.453125 8.671875 L 1.777344 7.753906 C 1.777344 7.753906 1.511719 7.605469 1.5 7.503906 C 1.5 7.5 1.496094 7.503906 1.511719 7.484375 C 1.523438 7.460938 1.558594 7.429688 1.601562 7.398438 C 1.6875 7.335938 1.789062 7.300781 1.789062 7.300781 L 1.796875 7.296875 L 1.808594 7.292969 C 1.808594 7.292969 4.542969 6.121094 7.324219 4.929688 C 8.714844 4.332031 10.117188 3.730469 11.195312 3.269531 C 12.273438 2.808594 13.054688 2.476562 13.121094 2.449219 C 13.195312 2.421875 13.269531 2.410156 13.328125 2.40625 Z M 10.085938 5.636719 L 6.375 10.003906 L 6.371094 10.003906 C 6.367188 10.011719 6.359375 10.019531 6.355469 10.027344 C 6.347656 10.035156 6.34375 10.042969 6.339844 10.050781 C 6.316406 10.085938 6.304688 10.128906 6.300781 10.167969 C 6.300781 10.167969 6.300781 10.167969 6.300781 10.171875 L 5.816406 12.34375 C 5.808594 12.320312 5.800781 12.3125 5.792969 12.285156 C 5.640625 11.789062 4.941406 9.453125 4.84375 9.132812 Z M 6.792969 10.71875 L 7.460938 11.21875 L 6.480469 12.128906 Z M 6.792969 10.71875 "/>
</g>
</svg>
